# AST/ASF file generated using VICON BodyLanguage
# -----------------------------------------------
:version 1.10
:name VICON
:units
  mass 1.0
  length 0.45
  angle deg
:documentation
   .ast/.asf automatically generated from VICON data using
   VICON BodyBuilder and BodyLanguage model FoxedUp or BRILLIANT.MOD
:root
   order TX TY TZ RX RY RZ
   axis XYZ
   position 0 0 0  
   orientation 0 0 0 
:bonedata
  begin
     id 1 
     name lhipjoint
     direction 0.682418 -0.694059 0.22932 
     length 2.25561 
     axis 0 0 0  XYZ
  end
  begin
     id 2 
     name lfemur
     direction 0.34202 -0.939693 0  
     length 6.96448  
     axis 0 0 20  XYZ
    dof rx ry rz
    limits (-160.0 20.0)
           (-70.0 70.0)
           (-60.0 70.0)
  end
  begin
     id 3 
     name ltibia
     direction 0.34202 -0.939693 0   
     length 6.88553   
     axis 0 0 20   XYZ
    dof rx
    limits (-10.0 170.0)
  end
  begin
     id 4 
     name lfoot
     direction 0.0723587 -0.198804 0.977364   
     length 1.88518   
     axis -90 7.62852e-016 20   XYZ
    dof rx rz
    limits (-45.0 90.0)
           (-70.0 20.0)
  end
  begin
     id 5 
     name ltoes
     direction 1.53558e-011 -4.21962e-011 1   
     length 0.952124   
     axis -90 7.62852e-016 20   XYZ
    dof rx
    limits (-90.0 20.0)
  end
  begin
     id 6 
     name rhipjoint
     direction -0.657603 -0.71533 0.236348   
     length 2.18854  
     axis 0 0 0  XYZ 
  end
  begin
     id 7 
     name rfemur
     direction -0.34202 -0.939693 0   
     length 6.86686   
     axis 0 0 -20   XYZ
    dof rx ry rz
    limits (-160.0 20.0)
           (-70.0 70.0)
           (-70.0 60.0)
  end
  begin
     id 8 
     name rtibia
     direction -0.34202 -0.939693 0   
     length 6.59503   
     axis 0 0 -20   XYZ
    dof rx
    limits (-10.0 170.0)
 end
 begin
     id 9 
     name rfoot
     direction -0.101977 -0.280179 0.954516   
     length 1.93723  
     axis -90 -7.62852e-016 -20   XYZ
    dof rx rz
    limits (-45.0 90.0)
           (-20.0 70.0)
  end
  begin
     id 10 
     name rtoes
     direction -1.53564e-011 -4.21897e-011 1   
     length 0.970315   
     axis -90 -7.62852e-016 -20   XYZ
    dof rx
    limits (-90.0 20.0)
  end
  begin
     id 11 
     name lowerback
     direction -0.0339559 0.999421 -0.00235966   
     length 1.88543   
     axis 0 0 0   XYZ
    dof rx ry rz
    limits (-20.0 45.0)
           (-30.0 30.0)
           (-30.0 30.0)
  end
  begin
     id 12 
     name upperback
     direction 0.00401003 0.999739 0.0224689   
     length 1.8856   
     axis 0 0 0   XYZ
    dof rx ry rz
    limits (-20.0 45.0)
           (-30.0 30.0)
           (-30.0 30.0)
  end
  begin
     id 13 
     name thorax
     direction 0.0198619 0.999546 0.0226536   
     length 1.88352   
     axis 0 0 0   XYZ
    dof rx ry rz
    limits (-20.0 45.0)
           (-30.0 30.0)
           (-30.0 30.0)
  end
  begin
     id 14 
     name lowerneck
     direction -0.0461848 0.998632 0.0245198   
     length 1.34895   
     axis 0 0 0   XYZ
    dof rx ry rz
    limits (-20.0 45.0)
           (-30.0 30.0)
           (-30.0 30.0)
  end
  begin
     id 15 
     name upperneck
     direction -0.0180627 0.994724 -0.100984   
     length 1.35214   
     axis 0 0 0   XYZ
    dof rx ry rz
    limits (-20.0 45.0)
           (-30.0 30.0)
           (-30.0 30.0)
  end
  begin
     id 16
     name head
     direction -0.00374772 0.999293 -0.037403  
     length 1.3568  
     axis 0 0 0   XYZ
    dof rx ry rz
    limits (-20.0 45.0)
           (-30.0 30.0)
           (-30.0 30.0)
  end
  begin
     id 17 
     name lclavicle
     direction 0.971773 0.191119 0.138311  
     length 2.84954  
     axis 0 0 0   XYZ
    dof ry rz
    limits (-20.0 10.0)
           (0.0 20.0)
  end
  begin
     id 18 
     name lhumerus
     direction 1 -4.4897e-011 -2.43761e-027   
     length 4.40919   
     axis 180 -30 -90   XYZ
    dof rx ry rz
    limits (-60.0 90.0)
           (-90.0 90.0)
           (-90.0 90.0)
  end
  begin
     id 19
     name lradius
     direction 1 -4.4896e-011 -9.1621e-027   
     length 3.03857   
     axis 180 -30 -90   XYZ
    dof rx
    limits (-10.0 170.0)
  end
  begin
     id 20
     name lwrist
     direction 1 -4.4896e-011 -1.41363e-026   
     length 1.51928   
     axis 1.07133e-014 90 90   XYZ
    dof ry
    limits (-180.0 0.0)
 end
  begin
     id 21 
     name lhand
     direction 1 -4.48978e-011 -2.82725e-026   
     length 0.523208   
     axis 1.80403e-014 90 90   XYZ
    dof rx rz
    limits (-90.0 90.0)
           (-45.0 45.0)
  end
  begin
     id 22 
     name lfingers
     direction 1 -4.48977e-011 -5.6545e-026   
     length 0.421824   
     axis 3.60806e-014 90 90   XYZ
    dof rx
    limits (0.0 90.0)
  end
  begin
     id 23
     name lthumb
     direction 0.707107 -6.34962e-011 0.707107   
     length 0.605657   
     axis -90 45 2.85299e-015   XYZ
    dof rx rz
    limits (-45.0 45.0)
           (-45.0 45.0)
  end
  begin
     id 24 
     name rclavicle
     direction -0.957247 0.24311 0.156766   
     length 3.12406  
     axis 0 0 0   XYZ 
    dof ry rz
    limits (-10.0 20.0)
           (-20.0 0.0)
  end
  begin
     id 25 
     name rhumerus
     direction -1 -4.48964e-011 -1.70632e-027  
     length 4.61969   
     axis 180 30 90   XYZ
    dof rx ry rz
    limits (-90.0 60.0)
           (-90.0 90.0)
           (-90.0 90.0)
  end
  begin
     id 26 
     name rradius
     direction -1 -4.48966e-011 -6.60395e-027   
     length 3.09382   
     axis 180 30 90   XYZ
    dof rx
    limits (-10.0 170.0)
  end
  begin
     id 27 
     name rwrist
     direction -1 -4.48963e-011 -1.41363e-026   
     length 1.54691   
     axis 1.07133e-014 -90 -90   XYZ
    dof ry
    limits (-180.0 0.0)
  end
  begin
     id 28
     name rhand
     direction -1 -4.49013e-011 -2.82725e-026   
     length 0.500896   
     axis 1.80403e-014 -90 -90   XYZ
    dof rx rz
    limits (-90.0 90.0)
           (-45.0 45.0)
  end
  begin
     id 29
     name rfingers
     direction -1 -4.48902e-011 -5.6545e-026   
     length 0.403835   
     axis 3.60806e-014 -90 -90   XYZ
    dof rx
    limits (0.0 90.0)
  end
  begin
     id 30
     name rthumb
     direction -0.707107 -6.34953e-011 0.707107   
     length 0.579829   
     axis -90 -45 -2.85299e-015   XYZ
    dof rx rz
    limits (-45.0 45.0)
           (-45.0 45.0)
  end
:hierarchy
  begin
    root lhipjoint rhipjoint lowerback
    lhipjoint lfemur
    lfemur ltibia
    ltibia lfoot
    lfoot ltoes
    rhipjoint rfemur
    rfemur rtibia
    rtibia rfoot
    rfoot rtoes
    lowerback upperback
    upperback thorax
    thorax lowerneck lclavicle rclavicle
    lowerneck upperneck
    upperneck head
    lclavicle lhumerus
    lhumerus lradius
    lradius lwrist
    lwrist lhand lthumb
    lhand lfingers
    rclavicle rhumerus
    rhumerus rradius
    rradius rwrist
    rwrist rhand rthumb
    rhand rfingers
  end

#!OML:ASF E:\madness\Project 1\Capture day 1\Session 1\Female1.ASF
:FULLY-SPECIFIED
:DEGREES
321
root 6.63128 13.9971 1.5411 -162.301 -68.12 184.716
lowerback 26.1092 2.6146 -4.58689
upperback 7.76335 1.31911 -0.471979
thorax -5.9507 0.298714 1.74616
lowerneck -5.85304 1.31073 -1.30588
upperneck -20.1649 0.0127151 -4.98012
head -5.12272 -0.086431 -1.30263
rclavicle 2.78299e-015 6.36111e-015
rhumerus 73.6227 0.200856 -60.1594
rradius 124.185
rwrist -29.0247
rhand -10.5819 -47.2334
rfingers 7.12502
rthumb 15.4232 -76.638
lclavicle 2.78299e-015 6.36111e-015
lhumerus 62.5714 -9.62244 68.8313
lradius 127.526
lwrist 14.1431
lhand -50.8929 -4.20398
lfingers 7.12502
lthumb -23.4459 24.3875
rfemur -68.9176 2.75498 10.7675
rtibia 74.7058
rfoot -13.7959 -3.49332
rtoes -3.76025
lfemur -63.2295 0.0923066 -20.4159
ltibia 73.1422
lfoot -24.1998 16.8836
ltoes 1.00786
322
root 6.64874 13.9571 1.52696 -161.966 -68.2419 184.326
lowerback 26.1243 2.59837 -4.58487
upperback 7.78033 1.29607 -0.487614
thorax -5.93743 0.286892 1.73485
lowerneck -5.67267 1.24596 -1.16863
upperneck -20.453 -0.127521 -5.07044
head -5.24413 -0.159892 -1.3518
rclavicle 2.42517e-014 -3.49861e-014
rhumerus 73.8958 -0.038223 -59.9552
rradius 124.262
rwrist -28.9843
rhand -10.8825 -47.1075
rfingers 7.12502
rthumb 15.1337 -76.5341
lclavicle 2.42517e-014 -3.49861e-014
lhumerus 62.6487 -9.66773 68.7919
lradius 127.537
lwrist 13.8822
lhand -51.3696 -4.82519
lfingers 7.12502
lthumb -23.9031 23.7072
rfemur -68.5694 2.68521 10.6799
rtibia 74.4442
rfoot -14.6915 -3.00096
rtoes -7.25269
lfemur -63.509 0.059735 -20.4821
ltibia 73.55
lfoot -24.2015 17.0315
ltoes 0.154928
323
root 6.6688 13.9135 1.51604 -161.518 -68.5936 183.845
lowerback 26.2242 2.47225 -4.48116
upperback 7.75658 1.16187 -0.46101
thorax -6.00321 0.225935 1.74457
lowerneck -5.45239 1.16493 -1.278
upperneck -20.7363 -0.2652 -5.01912
head -5.37346 -0.220372 -1.31457
rclavicle 7.55382e-015 1.90833e-014
rhumerus 74.2168 -0.169631 -59.7986
rradius 124.587
rwrist -28.9421
rhand -11.1493 -47.3449
rfingers 7.12502
rthumb 14.8766 -76.7908
lclavicle 7.55382e-015 1.90833e-014
lhumerus 62.6628 -9.68438 68.7591
lradius 127.52
lwrist 13.8292
lhand -52.0376 -6.02104
lfingers 7.12502
lthumb -24.5435 22.4259
rfemur -68.1791 2.42446 10.5786
rtibia 74.0523
rfoot -16.4409 -2.79841
rtoes -5.70775
lfemur -63.9053 -0.18583 -20.5218
ltibia 73.9859
lfoot -24.3136 17.0432
ltoes -0.313646
324
root 6.68627 13.8759 1.50637 -161.109 -68.9964 183.407
lowerback 26.6022 2.28142 -4.21379
upperback 7.56156 0.973568 -0.519173
thorax -6.38879 0.152194 1.58095
lowerneck -5.24083 1.11216 -1.35599
upperneck -20.9275 -0.349165 -4.95814
head -5.47106 -0.254752 -1.28059
rclavicle 3.22031e-014 -8.74653e-015
rhumerus 74.164 -0.198531 -59.7398
rradius 124.795
rwrist -28.7397
rhand -11.2709 -47.6669
rfingers 7.12502
rthumb 14.7595 -77.1214
lclavicle 3.22031e-014 -8.74653e-015
lhumerus 62.3645 -9.83278 68.7883
lradius 127.551
lwrist 13.8439
lhand -52.5079 -7.61467
lfingers 7.12502
lthumb -24.9943 20.7704
rfemur -67.7169 2.1401 10.4923
rtibia 73.5625
rfoot -18.1602 -2.93832
rtoes -3.18824
lfemur -64.2628 -0.451383 -20.575
ltibia 74.4657
lfoot -24.6578 16.8242
ltoes -0.180989
325
root 6.70181 13.8509 1.49079 -160.929 -69.0408 183.199
lowerback 26.7591 2.24996 -4.19353
upperback 7.49244 0.925554 -0.596045
thorax -6.53837 0.134447 1.498
lowerneck -5.49051 1.13905 -1.45512
upperneck -20.8148 -0.270027 -4.78523
head -5.39403 -0.224198 -1.21092
rclavicle 1.78906e-014 5.28767e-014
rhumerus 74.1781 -0.313226 -59.7598
rradius 124.741
rwrist -28.5371
rhand -11.2146 -47.8894
rfingers 7.12502
rthumb 14.8137 -77.3399
lclavicle 1.78906e-014 5.28767e-014
lhumerus 62.2307 -9.8396 68.7496
lradius 127.661
lwrist 13.8246
lhand -52.5728 -8.76762
lfingers 7.12502
lthumb -25.0564 19.6088
rfemur -67.2915 2.17882 10.4795
rtibia 73.1427
rfoot -19.5833 -3.3495
rtoes -4.89667
lfemur -64.4814 -0.434712 -20.5979
ltibia 74.9322
lfoot -25.1338 16.4466
ltoes 1.15443
